<svg width="15" height="16" viewBox="0 0 15 16" fill="none" xmlns="http://www.w3.org/2000/svg">
<path fill-rule="evenodd" clip-rule="evenodd" d="M1.76757 0.978307C1.93161 0.814507 2.12858 0.687442 2.34543 0.60553C2.56228 0.523619 2.79406 0.488732 3.02541 0.503181C3.25677 0.517631 3.48241 0.581087 3.68738 0.689345C3.89236 0.797602 4.07199 0.948189 4.21437 1.13113L5.89713 3.2931C6.20556 3.68968 6.31431 4.20627 6.19244 4.69379L5.67964 6.74701C5.65313 6.85335 5.65456 6.96475 5.6838 7.07038C5.71304 7.176 5.76909 7.27228 5.84651 7.34985L8.14987 9.65339C8.22753 9.73098 8.32396 9.78713 8.42976 9.81637C8.53556 9.84562 8.64713 9.84696 8.7536 9.82027L10.8057 9.30744C11.0463 9.24728 11.2974 9.24261 11.54 9.29377C11.7827 9.34494 12.0105 9.4506 12.2063 9.60276L14.3681 11.2847C15.1453 11.8894 15.2165 13.0379 14.5209 13.7326L13.5516 14.7021C12.8579 15.3958 11.821 15.7005 10.8545 15.3602C8.38066 14.4897 6.13457 13.0734 4.28281 11.2163C2.42595 9.36464 1.00973 7.11871 0.139187 4.64504C-0.200177 3.67937 0.104501 2.64151 0.798229 1.94773L1.76757 0.978307Z" fill="white"/>
</svg>
