<svg width="15" height="24" viewBox="0 0 15 24" fill="none" xmlns="http://www.w3.org/2000/svg">
<path d="M7 4C3.13 4 0 7.13 0 11C0 16.25 7 24 7 24C7 24 14 16.25 14 11C14 7.13 10.87 4 7 4ZM7 13.5C6.33696 13.5 5.70107 13.2366 5.23223 12.7678C4.76339 12.2989 4.5 11.663 4.5 11C4.5 10.337 4.76339 9.70107 5.23223 9.23223C5.70107 8.76339 6.33696 8.5 7 8.5C7.66304 8.5 8.29893 8.76339 8.76777 9.23223C9.23661 9.70107 9.5 10.337 9.5 11C9.5 11.663 9.23661 12.2989 8.76777 12.7678C8.29893 13.2366 7.66304 13.5 7 13.5Z" fill="white"/>
</svg>
